<?xml version="1.0" encoding="utf-8"?>
<!-- Generator: Adobe Illustrator 27.5.0, SVG Export Plug-In . SVG Version: 6.00 Build 0)  -->
<svg version="1.1" id="_x2018_лой_x5F_1" xmlns="http://www.w3.org/2000/svg" xmlns:xlink="http://www.w3.org/1999/xlink"
	 x="0px" y="0px" viewBox="0 0 3000 2000" style="enable-background:new 0 0 3000 2000;" xml:space="preserve">
<rect style="fill:#FFFFFF;" width="3000" height="2000"/>
<g>
	<g>
		<path style="fill:#D2E0FF;" d="M2855.979,1576.162c-11.518,151.528-86.932,248.797-103.21,269.365
			c-1.858,2.352-2.948,3.693-3.086,4.015c-53.676,0-355.437,0.069-730.088-0.012c-227.081-0.046-480.947-0.148-722.574-0.344
			c-529.943-0.413-1001.024-1.308-1001.621-3.154l-0.229-0.505v-0.012c0,0-0.218-0.505-0.218-0.757
			c-0.333-0.769-51.118-83.181-84.316-206.902c-13.456-50.119-24.033-107.019-27.199-168.014
			c-9.659-186.104,49.638-410.339,306.304-596.535c214.588-155.681-13.434-258.455,157.207-431.769
			c196.119-199.159,410.145,21.165,628.22-69.151c38.521-15.934,77.192-41.596,115.898-80.978
			c21.785-22.14,45.657-41.504,71.227-58.218c79.208-52.03,173.93-77.638,268.86-84.672
			c243.657-18.033,517.875,83.41,659.389,231.704c28.495,29.86,158.044,184.36,55.924,396.723
			c-25.238,52.482,0.791,104.047,47.584,156.553c72.73,81.621,195.626,165.513,254.039,258.685
			c40.759,65.01,68.004,126.51,85.107,183.856c8.754,29.355,14.856,57.633,18.745,84.74
			C2857.871,1502.032,2858.686,1540.6,2855.979,1576.162z"/>
	</g>
	<g>
		<path style="fill:#AEC3FF;" d="M1627.056,367.972c0,0,30.056-64.258,101.931-57.119c0,0,104.35-107.102,215.624-14.28
			c0,0,118.284-22.999,205.884,19.914c58.404,28.611,77.694,58.625,77.694,58.625L1627.056,367.972z"/>
	</g>
	<g>
		<g>
			<path style="fill:#BBD0FF;" d="M1681.024,1207.822h-38.051v-89.631c-0.592-0.356-1.177-0.713-1.762-1.069h-11.345v-0.043h-66.001
				v0.043h-0.055v13.437h0.055v9.24h-0.055v13.431h0.055v9.274h-0.055v13.436h0.055v0.048l-6.992-0.048v-70.283h-74.06v8.903h-0.037
				v13.431h0.037v11.809h-0.037v13.431h0.037v9.274h-0.037v13.436h0.037v8.58h-0.037v13.437h0.037v8.58h-0.037v13.436h0.037v8.079
				h-0.037v8.532h0.037v0.93h-83.479v76.893h-31.187v19.367h-33.625v-33.357h-60.491v-90.622h-9.461v-9.028h-1.353v9.028h-7.845
				v-0.015h-39.234v-9.014h-1.353v9.014h-10.223v45.573l-50.81-0.25v28.13h-43.08v-173.885H983.042v186.28h-38.978v-100.73H816.434
				v651.676l872.144-3.51L1681.024,1207.822z"/>
		</g>
		<g>
			<polygon style="fill:#BBD0FF;" points="816.555,1313.559 816.555,1374.638 816.555,1465.5 816.555,1842.125 752.453,1842.125 
				752.453,1465.5 752.453,1374.638 752.453,1313.559 			"/>
		</g>
		<g>
			<rect x="1015.88" y="1109.347" style="fill:#C5DAFF;" width="94.794" height="29.475"/>
		</g>
		<g>
			<rect x="1015.88" y="1154.713" style="fill:#C5DAFF;" width="94.794" height="29.475"/>
		</g>
		<g>
			<rect x="1015.88" y="1201.026" style="fill:#C5DAFF;" width="94.794" height="29.474"/>
		</g>
		<g>
			<rect x="1015.88" y="1248.077" style="fill:#C5DAFF;" width="94.794" height="29.475"/>
		</g>
		<g>
			<rect x="1015.88" y="1293.476" style="fill:#C5DAFF;" width="94.794" height="29.475"/>
		</g>
		<g>
			<g>
				<rect x="1482.831" y="1105.656" style="fill:#C5DAFF;" width="47.396" height="17.9"/>
			</g>
			<g>
				<rect x="1482.831" y="1133.208" style="fill:#C5DAFF;" width="47.396" height="17.899"/>
			</g>
			<g>
				<rect x="1482.831" y="1161.334" style="fill:#C5DAFF;" width="47.396" height="17.9"/>
			</g>
			<g>
				<rect x="1482.831" y="1189.909" style="fill:#C5DAFF;" width="47.396" height="17.899"/>
			</g>
			<g>
				<rect x="1482.831" y="1217.479" style="fill:#C5DAFF;" width="47.396" height="17.9"/>
			</g>
		</g>
		<g>
			<g>
				<rect x="1482.831" y="1247.824" style="fill:#C5DAFF;" width="47.396" height="17.9"/>
			</g>
			<g>
				<rect x="1482.831" y="1275.375" style="fill:#C5DAFF;" width="47.396" height="17.9"/>
			</g>
			<g>
				<rect x="1482.831" y="1303.502" style="fill:#C5DAFF;" width="47.396" height="17.9"/>
			</g>
			<g>
				<rect x="1482.831" y="1332.076" style="fill:#C5DAFF;" width="47.396" height="17.9"/>
			</g>
			<g>
				<rect x="1482.831" y="1359.647" style="fill:#C5DAFF;" width="47.396" height="17.9"/>
			</g>
		</g>
		<g>
			<g>
				<rect x="1563.959" y="1117.395" style="fill:#C5DAFF;" width="47.397" height="17.9"/>
			</g>
			<g>
				<rect x="1563.959" y="1144.946" style="fill:#C5DAFF;" width="47.397" height="17.899"/>
			</g>
			<g>
				<rect x="1563.959" y="1173.072" style="fill:#C5DAFF;" width="47.397" height="17.9"/>
			</g>
			<g>
				<rect x="1563.959" y="1201.647" style="fill:#C5DAFF;" width="47.397" height="17.899"/>
			</g>
			<g>
				<rect x="1563.959" y="1229.219" style="fill:#C5DAFF;" width="47.397" height="17.899"/>
			</g>
		</g>
		<g>
			<g>
				<rect x="1563.959" y="1257.963" style="fill:#C5DAFF;" width="47.397" height="17.9"/>
			</g>
			<g>
				<rect x="1563.959" y="1285.514" style="fill:#C5DAFF;" width="47.397" height="17.9"/>
			</g>
			<g>
				<rect x="1563.959" y="1313.641" style="fill:#C5DAFF;" width="47.397" height="17.9"/>
			</g>
			<g>
				<rect x="1563.959" y="1342.216" style="fill:#C5DAFF;" width="47.397" height="17.899"/>
			</g>
			<g>
				<rect x="1563.959" y="1369.786" style="fill:#C5DAFF;" width="47.397" height="17.9"/>
			</g>
		</g>
		<g>
			<rect x="1414.881" y="1201.647" style="fill:#BBD0FF;" width="2.352" height="36.521"/>
		</g>
		<g>
			<rect x="1454.504" y="1170.284" style="fill:#BBD0FF;" width="3.658" height="70.727"/>
		</g>
		<g>
			<rect x="991.516" y="1096.323" style="fill:#DFEBFA;" width="1.524" height="13.024"/>
		</g>
		<g>
			<rect x="1023.825" y="1096.323" style="fill:#DFEBFA;" width="1.524" height="13.024"/>
		</g>
		<g>
			<rect x="1097.891" y="1096.323" style="fill:#DFEBFA;" width="1.524" height="13.024"/>
		</g>
		<g>
			<rect x="1490.166" y="1095.605" style="fill:#DFEBFA;" width="1.176" height="10.051"/>
		</g>
		<g>
			<rect x="1545.767" y="1095.605" style="fill:#DFEBFA;" width="1.176" height="10.051"/>
		</g>
		<g>
			<rect x="1068.935" y="1096.323" style="fill:#DFEBFA;" width="1.524" height="13.024"/>
		</g>
		<g>
			<path style="fill:#BBD0FF;" d="M2611.47,1206.847l-49.051,0.013v-89.631c-0.636-0.355-1.265-0.713-1.895-1.069h-12.202v-0.043
				h-70.989v0.043h-0.059v13.437h0.059v9.24h-0.059v13.432h0.059v9.273h-0.059v13.436h0.059v0.049l-7.521-0.049v-70.283h-79.657
				v8.903h-0.039v13.432h0.039v11.808h-0.039v13.432h0.039v9.273h-0.039v13.436h0.039v8.58h-0.039v13.437h0.039v8.58h-0.039v13.437
				h0.039v8.078h-0.039v8.532h0.039v0.93h-89.787v76.893h-33.544v19.367h-36.167v-33.356h-65.062v-90.623h-10.176v-9.028h-1.456
				v9.028h-8.438v-0.015h-42.199v-9.014h-1.455v9.014h-10.995v45.574l-54.65-0.251v28.13h-46.336v-173.885h-137.277v186.28h-41.923
				v-100.73h-137.277v651.677l938.058-3.511V1206.847z"/>
		</g>
		<g>
			<polygon style="fill:#BBD0FF;" points="1690.613,1312.596 1690.613,1373.675 1690.613,1464.537 1690.613,1841.162 
				1622.923,1841.162 1622.923,1464.537 1622.923,1373.675 1622.923,1312.596 			"/>
		</g>
		<g>
			<rect x="1901.102" y="1108.384" style="fill:#C5DAFF;" width="88.788" height="29.475"/>
		</g>
		<g>
			<rect x="1901.102" y="1153.75" style="fill:#C5DAFF;" width="88.788" height="29.475"/>
		</g>
		<g>
			<rect x="1901.102" y="1200.063" style="fill:#C5DAFF;" width="88.788" height="29.475"/>
		</g>
		<g>
			<rect x="1901.102" y="1247.115" style="fill:#C5DAFF;" width="88.788" height="29.474"/>
		</g>
		<g>
			<rect x="1901.102" y="1292.513" style="fill:#C5DAFF;" width="88.788" height="29.475"/>
		</g>
		<g>
			<rect x="2322.446" y="1200.685" style="fill:#BBD0FF;" width="2.483" height="36.521"/>
		</g>
		<g>
			<rect x="2364.289" y="1169.322" style="fill:#BBD0FF;" width="3.862" height="70.727"/>
		</g>
		<g>
			<rect x="1875.373" y="1095.361" style="fill:#BBD0FF;" width="1.609" height="13.023"/>
		</g>
		<g>
			<rect x="1909.491" y="1095.361" style="fill:#BBD0FF;" width="1.609" height="13.023"/>
		</g>
		<g>
			<rect x="1987.705" y="1095.361" style="fill:#BBD0FF;" width="1.609" height="13.023"/>
		</g>
		<g>
			<rect x="2401.947" y="1094.643" style="fill:#DFEBFA;" width="1.242" height="10.051"/>
		</g>
		<g>
			<rect x="2460.661" y="1094.643" style="fill:#DFEBFA;" width="1.242" height="10.051"/>
		</g>
		<g>
			<rect x="1957.127" y="1095.361" style="fill:#BBD0FF;" width="1.609" height="13.023"/>
		</g>
	</g>
	<g>
		<path style="fill:#8C9DF4;" d="M1376.249,423.615c0,0,37.719-77.963,127.917-69.3c0,0,130.951-129.943,270.594-17.325
			c0,0,148.438-27.904,258.369,24.161c73.294,34.713,97.502,71.127,97.502,71.127L1376.249,423.615z"/>
	</g>
	<g>
		<path style="fill:#AEC3FF;" d="M1742.865,895.046c0,0,21.587-48.223,73.208-42.865c0,0,74.945-80.374,154.864-10.716
			c0,0,84.954-17.26,147.869,14.944c41.947,21.471,55.802,43.995,55.802,43.995L1742.865,895.046z"/>
	</g>
	<g>
		<path style="fill:#AEC3FF;" d="M2855.979,1576.162c-11.518,151.528-86.932,248.797-103.21,269.365
			c-1.858,2.352-2.948,3.693-3.086,4.015c-53.676,0-355.437,0.069-730.088-0.012c-227.081-0.046-480.947-0.148-722.574-0.344
			c-529.943-0.413-1001.024-1.308-1001.621-3.154l-0.229-0.505v-0.012c0,0-0.218-0.505-0.218-0.757
			c-0.333-0.769-51.118-83.181-84.316-206.902c11.873-72.639,50.475-139.609,148.764-153.157
			c231.727-31.949,154.11,84.006,273.024,66.363c118.915-17.644,289.085,105.539,392.157,174.368
			c103.084,68.83,179.129,2.294,360.381-67.108c181.251-69.393,504.751,85.463,603.544-13.192
			c98.794-98.656,314.186,18.354,379.643-114.957c65.468-133.323,331.46-129.733,331.46-129.733l133.587-24.399
			c8.754,29.355,14.856,57.633,18.745,84.74C2857.871,1502.032,2858.686,1540.6,2855.979,1576.162z"/>
	</g>
	<g>
		<defs>
			<path id="SVGID_1_" d="M2749.678,1849.54c-157.571,0-2452.954,0.559-2454.28-3.511l-0.225-0.514c0,0-0.224-0.503-0.224-0.755
				c-0.878-2.034-353.667-573.581,194.788-971.459c214.594-155.681-13.429-258.45,157.216-431.76
				c196.114-199.16,410.137,21.16,628.211-69.151c38.531-15.942,77.195-41.601,115.899-80.976
				c21.786-22.141,45.664-41.505,71.225-58.225c79.286-52.071,173.895-77.598,268.859-84.674
				c243.666-18.036,517.884,83.417,659.395,231.701c28.49,29.86,158.045,184.361,55.922,396.722
				c-64.48,134.078,205.641,262.134,301.627,415.239C2992.131,1581.446,2751.893,1844.466,2749.678,1849.54z"/>
		</defs>
		<clipPath id="SVGID_00000091736203330117218830000009619808133029691065_">
			<use xlink:href="#SVGID_1_"  style="overflow:visible;"/>
		</clipPath>
		<g style="clip-path:url(#SVGID_00000091736203330117218830000009619808133029691065_);">
			<g>
				<g>
					<path style="fill:#8FADEF;" d="M559.177,777.759c10.864-16.963,11.611-40.251,8.346-67.793
						c-2.431-20.501-9.532-34.39-9.766-35.035l-4.378,1.581c0.212,0.59,20.958,59.362-2.474,95.95L559.177,777.759z"/>
				</g>
			</g>
			<g>
				<g>
					<path style="fill:#8FADEF;" d="M566.224,722.333l0.75-9.794c-25.769-1.976-49.705-11.316-63.833-31.105
						c-10.582-14.822-15.165-29.658-15.193-29.799l-4.31,0.875c0.134,0.663,3.431,16.43,15.216,32.937
						C509.783,700.755,530.343,719.581,566.224,722.333z"/>
				</g>
			</g>
			<g>
				<g>
					<path style="fill:#8FADEF;" d="M726.781,740.27c20.034-16.28,30.297-44.321,37.385-79.149
						c5.276-25.925,2.212-45.679,2.188-46.559l-5.963,0.165c0.022,0.803,1.664,80.659-41.548,115.773L726.781,740.27z"/>
				</g>
			</g>
			<g>
				<g>
					<path style="fill:#8FADEF;" d="M744.849,726.179l-3.045-12.214c32.137-8.013,60.382-24.94,73.996-52.968
						c10.196-20.994,12.811-40.72,12.816-40.905l5.633,0.182c-0.028,0.867-0.817,21.495-12.173,44.874
						C811.543,686.832,789.596,715.021,744.849,726.179z"/>
				</g>
			</g>
			<g>
				<path style="fill:#AEC3FF;" d="M374.784,823.958c-1.492-0.271-108.436,35.681-108.436,91.126
					c0,55.446,99.895,77.765,152.224,63.575c52.328-14.19,127.284-7.027,165.565,18.938c38.282,25.965,94.308-60.481,206.45-36.956
					c112.143,23.525,160.629,1.264,225.783-34.576c65.154-35.841,107.54,28.02,165.137,15.787
					c57.597-12.232,89.215-100.321,8.252-129.006c-80.962-28.685-393.092-62.737-450.67-57.075
					C681.512,761.433,374.784,823.958,374.784,823.958z"/>
			</g>
			<g>
				<g>
					<path style="fill:#8FADEF;" d="M362.522,1844.646c0,0,83.067-164.293,132.356-301.718
						c54.434-151.771,81.449-316.118,126.478-409.914c52.991-110.38,83.014-297.785,108.627-418.94
						c0,0-28.472,326.568-66.424,400.572c-35.696,69.605-86.402,284.685-113.37,418.371
						c-26.968,133.688-87.818,236.633-97.977,320.406C452.212,1853.424,373.313,1886.409,362.522,1844.646z"/>
				</g>
				<g>
					<g>
						<path style="fill:#8FADEF;" d="M698.001,923.176l0.976-13.057c0.529-0.077,30.539-4.558,70.737-22.241
							c37.033-16.291,93.74-45.191,138.66-101.269l6.281,4.588c-47.298,59.045-103.614,91.771-142.527,108.827
							C729.973,918.501,699.287,922.994,698.001,923.176z M698.489,916.648l0.483-6.528c0.001,0,0.003-0.001,0.005-0.001
							L698.489,916.648z"/>
					</g>
				</g>
				<g>
					<g>
						<path style="fill:#8FADEF;" d="M798.147,876.981c-12.017-17.345-11.862-44.09-6.803-76.58
							c3.766-24.184,12.728-41.697,13.03-42.491l5.076,0.919c-0.275,0.725-27.265,72.908-1.347,110.319L798.147,876.981z"/>
					</g>
				</g>
				<g>
					<g>
						<path style="fill:#8FADEF;" d="M851.944,853.41c-2.265-0.222-4.546-0.481-6.857-0.779l3.827-11.44
							c50.426,6.522,88.943-6.774,112.378-19.076c25.407-13.337,39.128-28.44,39.263-28.591l3.935,3.284
							c-0.613,0.688-12.623,19.796-40.248,34.433C940.096,844.034,902.391,858.347,851.944,853.41z"/>
					</g>
				</g>
				<g>
					<g>
						<path style="fill:#8FADEF;" d="M650.806,976.044c-135.021-13.205-219.71-154.162-255.034-204.953
							c-6.294-9.05-12.238-17.598-14.024-18.852c0.004,0.004,0.487,0.336,1.392,0.424l3.509-11.477
							c3.879,0.38,6.39,3.826,19.071,22.06c35.872,51.581,141.508,188.931,279.581,193.705l-8.729,22.375
							C671.816,979.164,655.461,976.499,650.806,976.044z"/>
					</g>
				</g>
				<g>
					<g>
						<path style="fill:#8FADEF;" d="M402.306,895.574c-33.997-3.327-58.27-14.38-76.308-22.746
							c-35.055-16.259-44.424-40.133-45.035-40.952l4.39-3.626c0.14,0.187,14.441,18.846,47.793,34.182
							c30.797,14.161,84.628,28.308,166.184,15.29l7.7,16.907C469.987,900.541,428.773,898.164,402.306,895.574z"/>
					</g>
				</g>
				<g>
					<g>
						<path style="fill:#8FADEF;" d="M549.578,912.789l-8.573-5.724C596.19,835.769,581.055,755.771,580.832,755l4.961-2.337
							c0.245,0.847,5.964,21.092,4.447,50.938C588.835,831.263,580.64,872.659,549.578,912.789z"/>
					</g>
				</g>
				<g>
					<g>
						<path style="fill:#8FADEF;" d="M578.109,826.633c-28.631-2.801-42.008-36.861-50.618-53.969
							c-2.104-4.18-4.416-12.607-6.361-10.795c0.005,0.005-1.687-3.03-0.608-2.925l3.123,1.022
							c2.488,3.378,5.344,2.711,10.159,12.277c8.138,16.171,25.173,42.667,50.421,43.06l-2.64,11.526
							C580.406,826.81,579.246,826.744,578.109,826.633z"/>
					</g>
				</g>
				<g>
					<g>
						<path style="fill:#8FADEF;" d="M712.039,833.894c-42.271-10.786-60.642-34.818-68.611-53.08
							c-8.711-19.964-7.259-37.365-7.192-38.096l11.508-1.458c-0.013,0.156-1.24,15.882,6.665,33.662
							c10.573,23.781,31.646,39.849,62.631,47.756L712.039,833.894z"/>
					</g>
				</g>
				<g>
					<g>
						<path style="fill:#8FADEF;" d="M792.322,814.417l-0.448-11.158c30.375-7.617,58.922-23.362,76.404-49.146
							c13.094-19.313,19.138-37.397,19.178-37.567l5.027,0.118c-0.188,0.794-4.761,19.689-19.344,41.196
							C859.615,777.807,834.616,803.81,792.322,814.417z"/>
					</g>
				</g>
			</g>
			<g>
				<path style="fill:#BBD0FF;" d="M119.263,870.065c0,0,38.311,29.815,92.678,21.199c54.367-8.616,93.419-27.056,144.416-9.018
					c50.997,18.038,166.638,28.847,255.842-7.346c89.203-36.193,180.242-65.835,278.54-34.347
					c98.299,31.488,151.093,53.292,223.912,29.511c72.819-23.781,113.753,51.174,197.053,12.182
					c83.3-38.993,28.406-98.086-36.081-110.207c-64.487-12.122-164.614-90.912-281.124-72.729
					c-116.511,18.183-222.9-31.607-334.289-7.576c-111.389,24.031-169.984,60.619-282.853,51.522
					C264.488,734.16,34.114,802.935,119.263,870.065z"/>
			</g>
			<g>
				<path style="fill:#BBD0FF;" d="M557.209,696.484c0,0-68.813,7.055-107.802,21.164c-38.989,14.109-128.397,5.644-94.415-38.095
					c33.983-43.739,59.325-71.957,135.353-63.492c76.028,8.466,152.117,16.931,173.53,36.684
					C685.289,672.498,587.034,700.717,557.209,696.484z"/>
			</g>
			<g>
				<path style="fill:#BBD0FF;" d="M724.532,633.627c28.764-6.641,77.493,20.713,125.353,43.556
					c47.86,22.843,147.023,6.884,107.087-59.806c-39.936-66.689-69.967-109.877-165.329-100.89
					c-95.362,8.987-190.801,17.971-218.642,46.344C545.159,591.204,646.334,651.681,724.532,633.627z"/>
			</g>
		</g>
		<g style="clip-path:url(#SVGID_00000091736203330117218830000009619808133029691065_);">
			<g>
				<path style="fill:#AEC3FF;" d="M43.939,1135.978c-1.144-0.206-83.14,27.239-83.14,69.566s76.592,59.366,116.713,48.533
					c40.121-10.833,97.591-5.364,126.942,14.457c29.352,19.822,72.307-46.171,158.289-28.212
					c85.982,17.959,123.157,0.965,173.112-26.396c49.954-27.36,82.453,21.391,126.613,12.052
					c44.161-9.338,68.402-76.585,6.327-98.483s-301.391-47.894-345.537-43.571C279.113,1088.246,43.939,1135.978,43.939,1135.978z"
					/>
			</g>
			<g>
				<path style="fill:#BBD0FF;" d="M-151.973,1171.176c0,0,29.374,22.762,71.058,16.184c41.684-6.577,71.626-20.654,110.727-6.884
					c39.1,13.77,127.764,22.022,196.158-5.607c68.394-27.63,138.194-50.259,213.562-26.221
					c75.367,24.038,115.845,40.683,171.677,22.528s87.216,39.067,151.085,9.3c63.868-29.768,21.779-74.879-27.664-84.133
					c-49.443-9.254-126.212-69.402-215.543-55.521c-89.33,13.88-170.901-24.129-256.305-5.784
					c-85.403,18.346-130.33,46.277-216.869,39.333C-40.627,1067.425-217.258,1119.928-151.973,1171.176z"/>
			</g>
		</g>
	</g>
	<g>
		<path style="fill:#7087E8;" d="M1297.777,1851.618H224.757c-0.161-0.378-0.252-0.791-0.252-1.228v-1.697
			c0-1.741,1.425-3.166,3.166-3.166h67.499v-0.012c0,0-0.218-0.505-0.218-0.757c-0.471-1.079-100.537-163.356-111.516-374.916
			c48.009-7.422,146.366-13.065,249.381,37.627c144.543,71.124,100.95,178.958,185.84,190.429
			c84.89,11.472,224.844-50.475,337.265,36.71c110.231,85.486,368.388,13.205,406.095,111.964
			c0.471,1.193-65.411,1.364-64.998,2.614C1297.273,1849.979,1297.537,1850.793,1297.777,1851.618z"/>
	</g>
	<g>
		<path style="fill:#8C9DF4;" d="M2855.979,1576.162c-11.518,151.528-86.932,248.797-103.21,269.365
			c-1.858,2.352-2.948,3.693-3.086,4.015c-53.676,0-355.437,0.069-730.088-0.012l0.895-3.923c0,0,94.067-90.351,206.489-71.996
			s182.869,43.593,233.688,9.178c50.809-34.415,112.755-87.185,193.057-50.476
			C2722.23,1763.631,2760.684,1586.211,2855.979,1576.162z"/>
	</g>
	<g>
		<path style="fill:#7087E8;" d="M2851.94,1460.78c-71.365,23.506-116.987-46.552-174.655-23.838
			c-65.388,25.754-216.813,53.4-283.085-87.93s135.721-232.575,124.776-254.372c-10.943-21.784-70.538-32.739-58.311-96.637
			c5.369-28.036,19.354-49.385,33.383-64.505c72.73,81.621,195.626,165.513,254.039,258.685
			C2809.702,1290.473,2840.446,1380.709,2851.94,1460.78z"/>
	</g>
	<g>
		<g>
			<path style="fill:#344AB7;" d="M2107.455,1708.648c0,0,38.665,62.689,81.61,80.133c0,0,28.679-7.717,31.274,2.613
				c2.595,10.33-13.762,23.251-33.471,20.105c-19.709-3.145-104.846-45.199-107.662-50.984
				C2076.391,1754.729,2107.455,1708.648,2107.455,1708.648z"/>
		</g>
		<g>
			<path style="fill:#344AB7;" d="M1926.088,1736.357c0,0-65.761,25.397-128.825-11.988c0,0-8.63-8.588-15.421-7.541
				c-6.79,1.048-39.67,15.816-48.119,2.95s11.104-21.595,20.637-22.666c9.531-1.071,30.55-15.059,35.173-14.45
				c4.624,0.607,36.398,0.704,46.486-13.668c10.087-14.371,42.396-36.209,75.185-9.548
				C1943.992,1686.107,1926.088,1736.357,1926.088,1736.357z"/>
		</g>
		<g>
			<path style="fill:#2A4570;" d="M2142.808,1601.908c0,0-67.833,49.848-108.773,26.209s9.98-50.309,33.776-49.804
				C2091.606,1578.819,2157.171,1574.261,2142.808,1601.908z"/>
		</g>
		<g>
			<path style="fill:#4656CC;" d="M2165.933,1672.058c0,0-27.014,8.687-39.552,29.591c-10.43,17.392-17.886,55.061-43.354,67.763
				s-102.08-28.095-133.766-24.976c-31.685,3.119-125.592-26.07-117.667-58.07c9.161-36.997,36.635-76.887,112.696-54.025
				c62.447,18.769,195.48-9.664,195.48-9.664L2165.933,1672.058z"/>
		</g>
		<g>
			<path style="fill:#4656CC;" d="M2135.557,1578.976c0,0,27.894,4.379,38.452,20.751c10.559,16.371,48.046,10.896,49.909,26.258
				c1.863,15.363-7.402,44.739-45.972,46.65s-65.835-1.936-74.609-21.646C2094.563,1631.28,2112.63,1571.334,2135.557,1578.976z"/>
		</g>
		<g>
			<path style="fill:#4656CC;" d="M2123.348,1837.07c-0.746,7.504-10.138,9.349-20.148,8.87c-8.32-0.395-17.051-2.394-21.57-4.056
				c-9.939-3.688-68.99-94.727-68.99-94.727l50.265-42.943c0,0,31.158,106.188,37.325,113.523c1.676,2,4.252,3.323,7.096,4.464
				c0.015,0.014,0.028,0.014,0.028,0.014C2114.941,1825.271,2124.333,1827.074,2123.348,1837.07z"/>
		</g>
		<g>
			<path style="fill:#4656CC;" d="M1937.375,1717.683c0,0-43.021,55.845-116.331,56.628c0,0-11.834-2.859-17.095,1.561
				c-5.26,4.42-25.695,34.111-39.596,27.5c-13.901-6.61-1.72-24.221,5.871-30.085s18.294-28.729,22.562-30.61
				s31.476-18.293,32.637-35.813c1.161-17.521,17.439-52.957,59.305-47.191C1926.592,1665.438,1937.375,1717.683,1937.375,1717.683z
				"/>
		</g>
		<g>
			<path style="fill:#4656CC;" d="M1913.087,1626.061c0,0-77.827-5.386-99.413-27.795c-26.505-27.516-6.221-52.296-6.221-52.296
				s-22.761,1.648-33.498,24.646c-12.67,27.138,10.42,95.004,79.815,87.443L1913.087,1626.061z"/>
		</g>
		<g>
			<path style="fill:#F77D48;" d="M2132.17,1693.82c0,0-38.062-15.358-59.382-62.302c0,0-16.997-0.348-19.702,4.313
				c0,0,23.752,55.194,69.674,72.795C2122.76,1708.626,2135.881,1707.551,2132.17,1693.82z"/>
		</g>
		<g>
			<path style="fill:#192E4F;" d="M2136.695,1607.315c0,0-32.355,77.713-79.622,78.606s-17.427-48.238,3.212-60.091
				C2080.926,1613.978,2134.722,1576.223,2136.695,1607.315z"/>
		</g>
	</g>
	<g>
		<path style="fill:#505CD1;" d="M407.134,1846.674h102.372c5.486-4.652-3.796-15.221-13.495-15.932
			c-4.212-0.318-9.539,0.564-15.625,1.85c-1.408-18.711-9.454-102.826-39.773-99.446c-34.091,3.784,0,37.043,9.637,56.733
			c7.139,14.585,14.67,35.5,18.111,45.37c-2.768,0.601-5.633,1.188-8.56,1.727c-4.519-13.874-21.332-60.542-42.712-57.823
			c-25.103,3.184-15.013,21.895,2.779,33.002c13.054,8.168,29.083,19.776,36.7,25.385c-6.454,1.053-13.188,1.764-20.021,1.604
			C419.012,1838.727,410.453,1843.895,407.134,1846.674z"/>
	</g>
	<g>
		<path style="fill:#505CD1;" d="M2594.252,1847.245h-87.438c-4.686-3.975,3.242-13.001,11.526-13.607
			c3.598-0.272,8.147,0.481,13.346,1.579c1.202-15.981,8.074-87.825,33.971-84.938c29.118,3.231,0,31.639-8.231,48.457
			c-6.097,12.457-12.53,30.321-15.469,38.751c2.364,0.513,4.812,1.015,7.312,1.475c3.859-11.85,18.22-51.71,36.481-49.388
			c21.44,2.719,12.822,18.701-2.375,28.188c-11.149,6.976-24.84,16.892-31.346,21.682c5.512,0.899,11.265,1.506,17.101,1.37
			C2584.106,1840.457,2591.418,1844.871,2594.252,1847.245z"/>
	</g>
	<g>
		<g>
			<path style="fill:#FFB27D;" d="M1656.768,1123.121c0,0,20.146-18.919,28.177-17.465s7.457,22.799,0,32.202
				c-7.456,9.403-25.237,4.3-25.237,4.3L1656.768,1123.121z"/>
		</g>
		<g>
			<g>
				<path style="fill:#2B478B;" d="M1511.025,509.287L1511.025,509.287c3.631-0.963,5.813-4.722,4.85-8.353l-14.401-54.265
					c-0.963-3.63-4.722-5.813-8.353-4.849l0,0c-3.63,0.963-5.813,4.722-4.849,8.353l14.4,54.265
					C1503.637,508.068,1507.395,510.25,1511.025,509.287z"/>
			</g>
			<g>
				<path style="fill:#CE5A19;" d="M1540.523,605.159c0,0,309.996-129.744,576.912,39.005c0,0-182.871,38.125-259.676,123.31
					C1857.76,767.474,1699.896,622.376,1540.523,605.159z"/>
			</g>
			<g>
				<path style="fill:#D85E21;" d="M1857.76,767.474c0,0-228.034,35.031-250.736,92.218l-66.5-254.533
					C1540.523,605.159,1758.12,629.799,1857.76,767.474z"/>
			</g>
			<g>
				<path style="fill:#CE5A19;" d="M1539.546,605.419c0,0-333.538,41.034-481.661,319.925c0,0,177.713-57.565,286.648-21.672
					C1344.533,903.672,1409.681,699.392,1539.546,605.419z"/>
			</g>
			<g>
				<path style="fill:#D85E21;" d="M1344.533,903.672c0,0,215.398-82.645,263.469-44.239l-68.456-254.014
					C1539.546,605.419,1362.799,734.708,1344.533,903.672z"/>
			</g>
			<g>
				<path style="fill:#2B478B;" d="M1682.947,1164.806l3.806-1.01c2.112-0.561,3.383-2.749,2.822-4.861l-146.077-550.452
					c-0.561-2.113-2.748-3.383-4.861-2.823l-3.805,1.01c-2.113,0.561-3.384,2.749-2.822,4.862l146.076,550.452
					C1678.646,1164.097,1680.835,1165.366,1682.947,1164.806z"/>
			</g>
			<g>
				<path style="fill:#EF7E29;" d="M2117.424,644.163c-1.045-0.594-135.184-76.361-262.762-41.014l-0.023-0.03
					c-0.498-0.779-11.063-17.247-32.448-38.309c-28.686-28.268-76.839-64.81-146.215-82.784
					c-41.298-10.698-90.101-14.818-146.79-6.688c91.408-18.506,172.341-19.011,242.664-8.931c0.012-0.004,0.034-0.012,0.05-0.005
					c58.881,8.432,110.343,24.281,154.285,43.162c0,0,0.011-0.004,0.015,0.007C2052.295,563.745,2116.608,643,2117.424,644.163z"/>
			</g>
			<g>
				<path style="fill:#EF7E29;" d="M1474.218,490.756c-45.023,17.799-80.326,40.23-107.99,64.533
					c-47.365,41.528-72.419,88.477-85.659,126.872c-15.005,43.529-14.838,76.052-14.832,77.238l0.001,0.038
					c-128.315,32.559-207.244,164.874-207.858,165.9c0.014-0.069,0.027-0.138,0.029-0.202c0.133-1.083,0.842-6.131,2.583-14.413
					c0-0.038,0.014-0.069,0.017-0.095c5.119-24.246,19.011-75.961,52.845-136.579c22.166-39.723,52.881-83.271,95.311-125.408
					C1269.765,587.91,1355.156,530.084,1474.218,490.756z"/>
			</g>
			<g>
				<path style="fill:#F99746;" d="M1854.662,603.148c0,0-313.715-60.522-588.925,156.288c0,0-4.881-49.773,20.913-108.949
					c26.873-61.673,87.062-133.575,220.792-170.003c0,0,158.326-47.025,268.406,34.558c0,0,4.591,3.2,11.602,8.747
					C1806.461,538.807,1843.258,570.998,1854.662,603.148z"/>
			</g>
			<g>
				<path style="fill:#F77D48;" d="M1710.651,1184.867c-6.571,0-13.065-1.685-18.957-4.993
					c-9.099-5.108-15.642-13.461-18.424-23.519l-20.094-72.656c-1.436-5.19,1.608-10.563,6.799-11.998
					c5.194-1.432,10.563,1.609,11.998,6.799l20.094,72.656c1.385,5.01,4.644,9.169,9.175,11.713
					c4.531,2.545,9.78,3.161,14.774,1.736c5.139-1.465,9.337-4.876,11.822-9.605c2.485-4.729,2.914-10.121,1.206-15.185
					l-7.453-22.092c-1.722-5.103,1.02-10.635,6.122-12.356c5.104-1.72,10.635,1.02,12.356,6.122l7.453,22.093
					c3.43,10.166,2.569,20.994-2.422,30.491c-4.99,9.496-13.421,16.346-23.738,19.286
					C1717.827,1184.368,1714.228,1184.867,1710.651,1184.867z"/>
			</g>
		</g>
		<g>
			<path style="fill:#ED985F;" d="M1126.095,1470.613c0,0,49.049-36.547,54.284-48.647c5.235-12.102,27.752-56.391,33.57-60.903
				c0,0,12.193-1.52,13.938,6.663c1.745,8.184-11.612,56.769-20.919,71.437s-53.906,64.396-68.552,71.614L1126.095,1470.613z"/>
		</g>
		<g>
			<path style="fill:#ED985F;" d="M983.167,1642.533c0,0,4.614,18.035,0,25.584c-4.614,7.55-15.099,13.003-17.196,11.325
				s-0.839-13.117,1.678-18.303s-3.355-11.477,1.678-18.606S983.167,1642.533,983.167,1642.533z"/>
		</g>
		<g>
			<path style="fill:#233862;" d="M1128.118,1406.522c0,0,10.735,0.176,10.031,9.855c0,0,3.872,1.232,3.344,8.096
				c-0.528,6.864-6.664,7.92-6.664,7.92s7.719-1.056,10.184,4.576c0,0,12.319-2.288,14.783,6.159
				c2.464,8.448-15.839,25.755-15.839,25.755l-30.212,5.866l-14.784-10.56l-1.173-31.68L1128.118,1406.522z"/>
		</g>
		<g>
			<path style="fill:#FFB27D;" d="M1119.18,1506.022l-58.799-34.409c0.326-0.126,1.514-1.848,5.911-14.181
				c1.873-5.259,2.866-9.822,3.354-13.438c0.049-0.363,0.098-0.71,0.13-1.058c0.602-5.259,0.163-8.291,0.163-8.291l12.88,4.517
				l23.823,8.369c-0.277,5.859,0.57,9.98,1.856,12.808c3.11,6.869,8.907,6.916,9.07,6.916L1119.18,1506.022z"/>
		</g>
		<g>
			<path style="fill:#ED985F;" d="M1108.498,1460.339c-23.024,1.895-35.986-12.665-38.852-16.345
				c-0.423-0.537-0.635-0.837-0.635-0.837s0.277-0.079,0.766-0.221c1.873-0.537,6.953-2.021,13.042-3.774l23.823,8.369
				C1106.365,1453.391,1107.212,1457.512,1108.498,1460.339z"/>
		</g>
		<g>
			<path style="fill:#FFB27D;" d="M1109.652,1452.319c0,0-51.152,5.448-52.2-28.095c-1.047-33.543-8.609-48.893,26.783-51.881
				c35.392-2.988,43.752,9.373,45.837,20.723C1136.588,1428.52,1124.063,1450.814,1109.652,1452.319z"/>
		</g>
		<g>
			<path style="fill:#233862;" d="M1086.984,1388.729c-18.1-4.444,0.021,15.388-8.908,21.958
				c-9.333,6.867-20.755,0.223-19.368,6.214s3.391,8.135,4.435,11.876s-0.007,11.148-4.216,9.656
				c-4.208-1.494-43.354-44.841-15.715-78.605s110.054-12.964,84.102,22.354C1122.752,1388.393,1099.873,1391.894,1086.984,1388.729
				z"/>
		</g>
		<g>
			<path style="fill:#233862;" d="M1069.011,1415.658c0,0,9.249,2.217,12.035,9.313c0,0,7.664-0.887,7.886,9.534
				c0,0,0.936,4.883-2.477,7.982c0,0,8.02,11.416-0.849,17.903S1069.011,1415.658,1069.011,1415.658z"/>
		</g>
		<g>
			<path style="fill:#2A4E96;" d="M1213.561,1845.419c0.384-13.314-9.691-16.395-16.288-16.395c-3.224,0-8.326-3.229-12.702-6.534
				l-13.803-61.924c-21.589-0.939-58.665,16.426-58.665,16.426l33.682,62.785l0.002-0.001c0.143,3.35,0.416,5.643,0.416,5.643
				H1213.561z"/>
		</g>
		<g>
			<path style="fill:#2A4E96;" d="M1018.473,1748.481l-38.915,74.009l0,0c-1.764,3.089-2.693,5.751-1.794,7.117
				c3.102,4.715,26.371,15.814,26.371,15.814h33.74c0-9-9.086-13.648-13.961-15.529c-2.483-0.957-3.482-5.105-3.866-8.947h0.002
				l44.182-48.177C1064.231,1772.769,1020.042,1748.841,1018.473,1748.481z"/>
		</g>
		<g>
			<path style="fill:#FFB255;" d="M1160.227,1577.991c12.446,61.176,31.102,158.367,34.48,207.491c0,0-15.149,4.14-40.408,7.674
				c-18.937,2.66-43.576,4.97-71.778,4.955c-51.179-0.027-83.436-12.741-107.456-32.974c0,0,4.477-12.968,10.743-31.145
				c14.389-41.718,38.198-110.892,38.888-113.496c0.535-2.056,2.337-9.264,4.886-19.528c-24.836,16.713-38.212,60.148-38.212,60.148
				c-19.345-0.479-45.407-15.065-45.407-15.065s13.375-54.206,45.407-107.005c29.806-49.124,63.879-59.458,68.469-60.655
				c0.042-0.141,0.07-0.268,0.099-0.408c-2.9-1.675-5.871-3.773-8.842-6.435c0,0-51.7-61.696-59.176-88.152
				c-0.592-2.069-0.69-4.153-0.366-6.237c0-0.014,0-0.014,0-0.014c3.787-24.569,66.568-48.674,100.247-34.438
				c0,0-17.91,31.468-18.515,67.934c-0.366,22.612,5.914,47.139,27.216,67.301h0.014c13.953-5.829,12.165-12.418,12.165-12.418
				s32.975-14.714,47.997-30.877c17.191-18.501,39.113-51.25,39.113-51.25s28.497,22.415,28.258,26.16
				c-2.407,37.86-23.048,66.794-42.647,86.041C1163.592,1517.026,1154.116,1548.029,1160.227,1577.991z"/>
		</g>
		<g>
			<path style="fill:#163560;" d="M1441.739,786.272c0,0-51.006-7.681-75.712,24.452c-24.706,32.133-0.843,76.646-41.977,82.803
				c-24.22,3.625-37.831,30.198-15.303,62.982c13.856,20.165-54.441,42.819,0.554,87.121c63.424,51.093,88.03-60.507,124.579-47.755
				c36.55,12.751,88.407-24.007,70.022-46.65c-30.276-37.289,11.158-20.163,8.768-71.633
				C1510.278,826.121,1476.592,785.069,1441.739,786.272z"/>
		</g>
		<g>
			<path style="fill:#F77D48;" d="M1254.767,1763.612c0,0-18.893,17.242-15.207,29.492c3.687,12.251,20.736,20.419,23.041,35.392
				c2.304,14.974,11.52,23.141,19.814,23.141c8.295,0,39.544,0,39.544,0s6.106-10.537-8.64-13.713
				c-14.746-3.176-20.306-20.771-19.384-37.105c0.921-16.335-1.382-38.113-1.382-38.113l-31.335-7.26L1254.767,1763.612z"/>
		</g>
		<g>
			<path style="fill:#F77D48;" d="M1414.677,1772.315c0,0-6.797,73.043,1.498,77.126l106.151-0.217c0,0,0-12.251-17.051-14.974
				c-17.049-2.723-47.002-12.705-52.071-34.938C1448.136,1777.08,1414.677,1772.315,1414.677,1772.315z"/>
		</g>
		<g>
			<path style="fill:#233862;" d="M1501.354,1171.496c0,0,30.604,95.259,32.569,127.691c1.966,32.432-82.955,475.418-85.387,490.361
				c-2.293,14.087-35.825,0-35.825,0s-23.82-305.46-9.079-414.576s14.915-203.477,14.915-203.477H1501.354z"/>
		</g>
		<g>
			<path style="fill:#2A4E96;" d="M1371.691,1168.655c0,0-46.683,62.637-51.035,104.979c-4.352,42.343,12.667,179.081,3.395,220.358
				s-62.833,132.705-62.833,261.453c0,0,27.22,15.544,31.335,7.26c23.031-46.372,114.646-198.986,118.407-230.031
				c2.662-21.971,25.826-167.379,76.354-252.701c12.13-20.484-7.445-101.945-7.445-101.945L1371.691,1168.655z"/>
		</g>
		<g>
			<path style="fill:#FFB27D;" d="M1060.267,1471.551l0.114,0.063C1060.283,1471.661,1060.267,1471.551,1060.267,1471.551z"/>
		</g>
		<g>
			<path style="fill:#D35C2B;" d="M1014.248,1338.447c-0.714-1.55-1.223-2.56-1.223-2.56
				C1013.558,1336.604,1013.958,1337.473,1014.248,1338.447z"/>
		</g>
		<g>
			<path style="fill:#ED985F;" d="M1245.294,1338.676c-0.81,4.235-2.588,8.784-4.691,11.137c-2.75,3.138-7.117,9.411-9.866,13.489
				c-1.779,2.511-2.911,4.393-2.911,4.393l-13.909-6.589c0,0-0.324-22.899,8.896-27.762c0.324-0.157,0.484-0.314,0.809-0.314
				c3.881-2.039,7.602-3.45,10.836-4.393c4.367-1.097,7.764-1.254,9.705-0.155
				C1245.941,1329.422,1246.265,1333.971,1245.294,1338.676z"/>
		</g>
		<g>
			<path style="fill:#FFB27D;" d="M1506.511,1231.915c-31.727-101.415,3.043-123.461-0.262-174.211
				c-3.305-50.749-42.596-105.315-42.596-105.315s-1.49-0.151-4.079-0.389c-1.179-0.109-2.204-0.864-2.645-1.963
				c-1.553-3.868-2.003-12.849-1.978-22.223c0.032-13.97,1.104-28.8,1.104-28.8l-47.122-9.331l-2.803-0.552
				c0.117,32.799-8.518,54.333-14.775,59.345c-5.889,0.674-16.545,9.154-32.014,15.622c-5.832,2.434-14.697,6.533-16.251,9.942
				c-12.94,28.453-35.888,93.748-44.969,144.973c-5.06,28.55-8.92,50.71-10.936,55.405c-5.618,13.102-22.782,85.188-37.448,120.761
				l13.299,16.339c0,0,67.215-113.234,72.833-139.908c1.833-8.684,6.325-26.063,11.567-45.531c0.793-2.946,1.603-5.941,2.422-8.961
				c9.257,25.106,13.985,36.726,13.727,47.572c-0.365,15.438-10.832,29.311-32.709,78.375
				C1318.791,1270.176,1538.902,1335.492,1506.511,1231.915z"/>
		</g>
		<g>
			<path style="fill:#E8945B;" d="M1456.056,906.484c0,0-1.073,8.546-1.104,22.516c-26.369-0.743-40.307-18.514-46.018-31.847
				L1456.056,906.484z"/>
		</g>
		<g>
			<path style="fill:#163560;" d="M1404.066,892.023c0,0-13.818-21.834-17.135-40.504c-2.368-13.329,4.421-62.736,54.071-55.621
				c0,0,14.42,1.421,27.975,10.576c10.779,7.28,26.337,22.999,8.942,66.112l-4.518,14.565L1404.066,892.023z"/>
		</g>
		<g>
			<path style="fill:#FFB27D;" d="M1464.861,919.712c0,0-62.388,1.029-62.431-37.833c-0.042-38.862-8.124-64.902,31.708-67.202
				c39.832-2.3,47.587,12.52,50.757,25.488C1488.063,853.133,1481.089,918.443,1464.861,919.712z"/>
		</g>
		<g style="opacity:0.5;">
			<path style="fill:#ED9443;" d="M1160.227,1577.991c12.446,61.176,31.102,158.367,34.48,207.491c0,0-15.149,4.14-40.408,7.674
				c0,0-39.732-134.433-30.257-183.641c9.476-49.209,38.099-68.188,23.259-86.309c-14.84-18.12,57.698-46.856,38.1-27.609
				C1163.592,1517.026,1154.116,1548.029,1160.227,1577.991z"/>
		</g>
		<g>
			<path style="fill:#163560;" d="M1483.039,818.558c-9.627-11.67-16.908-9.133-20.995-5.628
				c-33.451-18.555-56.094,8.989-56.094,8.989c-4.173,27.884-24.281,43.858-24.281,43.858s11.371,7.024,37.586,0.283
				c7.999-2.057,15.146-7.734,21.219-14.628c-10.607,17.77-25.034,30.57-25.034,30.57c31.313-14.475,43.888-58.027,45.14-62.632
				c3.809,3.42,11.316,10.85,13.605,18.132c3.11,9.896,4.509,30.268,10.447,29.576
				C1484.633,867.077,1497.502,836.088,1483.039,818.558z"/>
		</g>
		<g>
			<path style="fill:#FFB27D;" d="M1251.277,1291.834c0,0-5.695,13.418-11.624,17.163c-5.929,3.744-9.632,11.558-8.072,18.734
				c1.561,7.178-1.602,19.648,5.888,19.648c7.489,0,24.964-33.078,27.148-39.319s4.057-7.489,4.057-7.489L1251.277,1291.834z"/>
		</g>
		<g>
			<path style="fill:#4656CC;" d="M1538.119,1403.881c-6.642,49.226-237.348,11.024-244.529-11.689
				c-6.217-19.639,0.459-42.903,8.007-78.546h0.012c2.592-12.229,5.288-25.914,7.605-41.412c-6.94,1.904-33.646,13.41-59.262-1.01
				c10.565-52.689,58.792-244.873,83.387-295.658c11.85-24.469,58.012-27.084,58.012-27.084s12.94,14.525,19.421,18.676
				c25.524,16.347,41.155,14.053,47.546,4.588c5.21-7.714,3.147-16.634,1.426-19.766c-0.08-0.149,3.912,0.378,3.912,0.378
				c9.28,1.25,15.831,2.203,20.557,3.017c9.258,1.629,11.563,2.753,13.869,4.554c8.133,8.317,18.71,28.955,19.559,65.778
				c0.321,13.663-0.699,29.574-3.671,47.905C1515.165,1125.305,1545.415,1349.735,1538.119,1403.881z"/>
		</g>
		<g>
			<path style="fill:#FFFFFF;" d="M1446.936,896.768c0,0,1.187,4.784,13.112,3.902c0,0,10.013-0.738,9.645-6.007
				C1469.692,894.663,1459.932,891.027,1446.936,896.768z"/>
		</g>
		<g>
			<path style="fill:#FFB27D;" d="M1261.867,1305.188c0,0,3.426,14.851,0.935,19.517c-2.491,4.666-0.816,10.734-5.824,9.023
				C1251.969,1332.019,1261.867,1305.188,1261.867,1305.188z"/>
		</g>
		<g>
			<path style="fill:#F77D48;" d="M1454.861,1804.327l29.882-170.478c0,0-17.365-12.672-92.926,0l21.008,205.928L1454.861,1804.327z
				"/>
		</g>
		<g>
			<path style="fill:#F77D48;" d="M1294.151,1792.657l73.497-153.437c0,0-26.047-38.01-88.702-40.58
				c0,0-17.728,78.814-17.728,117.81s-17.239,59.941-17.239,59.941L1294.151,1792.657z"/>
		</g>
		<g>
			<path style="fill:#163560;" d="M1448.42,1076.15c0-2.733,2.216-4.949,4.95-4.949s4.949,2.216,4.949,4.949
				s-2.216,4.949-4.949,4.949S1448.42,1078.884,1448.42,1076.15z"/>
		</g>
		<g>
			<path style="fill:#163560;" d="M1451.106,1173.072c0-2.732,2.216-4.949,4.949-4.949s4.949,2.217,4.949,4.949
				c0,2.734-2.216,4.95-4.949,4.95S1451.106,1175.807,1451.106,1173.072z"/>
		</g>
		<g>
			<path style="fill:#163560;" d="M1451.384,1284.325c0-2.733,2.216-4.949,4.95-4.949s4.949,2.216,4.949,4.949
				s-2.216,4.949-4.949,4.949S1451.384,1287.059,1451.384,1284.325z"/>
		</g>
		<g style="opacity:0.5;">
			<path style="fill:#ED9443;" d="M1025.752,1666.229c0.93,21.598-39.944,67.765-39.944,67.765
				c14.389-41.718,38.198-110.892,38.888-113.496c0.535-2.056,2.337-9.264,4.886-19.528l0.014-0.028c0,0,12.348-12.854,17.501-4.871
				C1052.264,1604.053,1024.809,1644.645,1025.752,1666.229z"/>
		</g>
		<g>
			<path style="fill:#2A4E96;" d="M1119.18,1535.017c0-2.687,2.177-4.863,4.863-4.863s4.863,2.177,4.863,4.863
				c0,2.686-2.177,4.863-4.863,4.863S1119.18,1537.702,1119.18,1535.017z"/>
		</g>
		<g>
			<path style="fill:#2A4E96;" d="M1119.18,1609.515c0-2.686,2.177-4.863,4.863-4.863s4.863,2.178,4.863,4.863
				s-2.177,4.863-4.863,4.863S1119.18,1612.2,1119.18,1609.515z"/>
		</g>
		<g>
			<circle style="fill:#2A4E96;" cx="1131.843" cy="1705.375" r="4.863"/>
		</g>
		<g style="opacity:0.5;">
			<path style="fill:#ED9443;" d="M1082.928,1480.545c-5.788-0.119-13.31-0.815-22.991-2.562c-2.9-1.675-5.871-3.773-8.842-6.435
				c0,0-51.7-61.696-59.176-88.152c-0.592-2.069-0.69-4.153-0.366-6.237c0.549,0.831,21.274,32.341,81.732,33.481
				c-0.238,14.716,2.876,38.771,11.01,53.784C1088.294,1471.806,1091.321,1480.717,1082.928,1480.545z"/>
		</g>
		<g>
			<path style="fill:#4656CC;" d="M1658.192,1183.225c0,0-13.743,5.702-39.921,11.713c-9.969,2.294-21.738,4.635-35.241,6.711
				c-23.207,3.579-44.188-12.31-59.858-30.021c-0.068-0.08-0.104-0.126-0.104-0.126c-17.287-19.604-28.048-41.378-28.048-41.378
				v-172.04c0,0,27.601,10.221,44.234,37.18c16.634,26.958,34.22,120.05,42.25,122.127c8.03,2.088,72.982-9.006,72.982-9.006
				S1675.193,1130.628,1658.192,1183.225z"/>
		</g>
		<g>
			<path style="fill:#FFB27D;" d="M1684.944,1105.656c0,0-6.31-2.752-9.751,4.705c-3.441,7.456-1.721,12.144,3.633,14.197
				s8.604-0.814,8.604-0.814L1684.944,1105.656z"/>
		</g>
		<g>
			<path style="fill:#344AB7;" d="M1618.271,1194.938c-9.969,2.294-21.738,4.635-35.241,6.711
				c-23.207,3.579-44.188-12.31-59.858-30.021c-0.068-0.08-0.104-0.126-0.104-0.126s-7.961-88.458,0-95.353
				c7.962-6.895,13.755,82.871,33.807,95.353C1576.916,1183.971,1616.034,1173.772,1618.271,1194.938z"/>
		</g>
		<g>
			<path style="fill:#344AB7;" d="M1353.988,1238.174c-16.06,26.098-13.582,64.401-52.379,75.472
				c2.592-12.229,5.288-25.914,7.605-41.412c0,0,38.579-111.711,39.611-133.415c1.033-21.704,12.619-16.795,13.766-5.609
				C1363.739,1144.394,1370.049,1212.064,1353.988,1238.174z"/>
		</g>
		<g>
			<path style="fill:#5A71E5;" d="M1443.685,979.126c0,0-38.131-28.764-40.588-57.84c0,0-30.909,0.459-31.214,30.239
				C1371.883,951.525,1408.341,988.8,1443.685,979.126z"/>
		</g>
		<g>
			<path style="fill:#5A71E5;" d="M1443.685,979.126c0,0,11.612-32.618,11.287-47.34c0,0,18.45,7.94,19.246,22.038
				C1474.218,953.824,1474.11,980.602,1443.685,979.126z"/>
		</g>
		<g>
			<path style="fill:#163560;" d="M1438.736,979.185c0-2.733,2.216-4.949,4.949-4.949s4.949,2.216,4.949,4.949
				c0,2.733-2.216,4.95-4.949,4.95S1438.736,981.918,1438.736,979.185z"/>
		</g>
	</g>
	<g>
		<path style="fill:#233862;" d="M2809.966,1848.693v1.697c0,1.744-1.423,3.166-3.166,3.166H227.671
			c-1.308,0-2.432-0.803-2.914-1.938c-0.161-0.378-0.252-0.791-0.252-1.228v-1.697c0-1.744,1.422-3.166,3.166-3.166H2806.8
			C2808.543,1845.527,2809.966,1846.949,2809.966,1848.693z"/>
	</g>
	<g>
		<g>
			<g>
				<path style="fill:#F0F6FF;" d="M2073.117,1108.104c3.85-9.137,32.047-29.821,32.047-29.821s4.891,34.626,1.04,43.763
					c-3.85,9.137-14.378,13.423-23.515,9.572C2073.554,1127.768,2069.268,1117.24,2073.117,1108.104z"/>
			</g>
			<g>
				<path style="fill:#F0F6FF;" d="M2301.001,859.179c3.851-9.137,32.047-29.822,32.047-29.822s4.89,34.626,1.04,43.763
					s-14.377,13.422-23.515,9.573C2301.438,878.843,2297.151,868.315,2301.001,859.179z"/>
			</g>
			<g>
				<path style="fill:#F0F6FF;" d="M1952.566,976.683c3.85-9.137,32.046-29.822,32.046-29.822s4.89,34.627,1.04,43.763
					c-3.85,9.137-14.377,13.423-23.514,9.573S1948.716,985.819,1952.566,976.683z"/>
			</g>
			<g>
				<path style="fill:#F0F6FF;" d="M1008.773,519.102c3.85-9.137,32.046-29.821,32.046-29.821s4.89,34.626,1.04,43.763
					c-3.85,9.137-14.377,13.422-23.514,9.572C1009.209,538.766,1004.923,528.238,1008.773,519.102z"/>
			</g>
			<g>
				<path style="fill:#F0F6FF;" d="M1768.77,1064.057c3.85-9.137,32.047-29.821,32.047-29.821s4.89,34.626,1.04,43.763
					s-14.378,13.423-23.514,9.573C1769.205,1083.721,1764.92,1073.193,1768.77,1064.057z"/>
			</g>
			<g>
				<path style="fill:#F0F6FF;" d="M2232.552,986.581c3.85-9.137,32.047-29.821,32.047-29.821s4.89,34.626,1.04,43.763
					c-3.851,9.136-14.378,13.422-23.515,9.573C2232.987,1006.245,2228.702,995.718,2232.552,986.581z"/>
			</g>
		</g>
		<g>
			<g>
				<path style="fill:#F0F6FF;" d="M1749.144,1494.644c3.85-9.137,32.046-29.821,32.046-29.821s4.891,34.626,1.041,43.763
					c-3.851,9.137-14.378,13.423-23.515,9.573C1749.579,1514.308,1745.293,1503.78,1749.144,1494.644z"/>
			</g>
			<g>
				<path style="fill:#F0F6FF;" d="M1735.819,1363.35c3.85-9.137,32.047-29.822,32.047-29.822s4.89,34.627,1.04,43.764
					s-14.378,13.422-23.514,9.572C1736.256,1383.014,1731.97,1372.485,1735.819,1363.35z"/>
			</g>
			<g>
				<path style="fill:#F0F6FF;" d="M1841.298,1461.854c3.851-9.137,32.047-29.821,32.047-29.821s4.89,34.626,1.04,43.763
					s-14.378,13.423-23.514,9.573C1841.734,1481.518,1837.448,1470.99,1841.298,1461.854z"/>
			</g>
			<g>
				<path style="fill:#F0F6FF;" d="M2055.129,1402.892c3.85-9.137,32.046-29.822,32.046-29.822s4.891,34.627,1.04,43.764
					c-3.85,9.137-14.377,13.422-23.514,9.572S2051.279,1412.027,2055.129,1402.892z"/>
			</g>
			<g>
				<path style="fill:#F0F6FF;" d="M2131.555,1479.317c3.85-9.137,32.047-29.821,32.047-29.821s4.89,34.626,1.039,43.763
					c-3.85,9.137-14.377,13.423-23.514,9.572C2131.99,1498.981,2127.705,1488.454,2131.555,1479.317z"/>
			</g>
		</g>
		<g>
			<g>
				<path style="fill:#F0F6FF;" d="M1399.36,559.968c3.85-9.137,32.046-29.821,32.046-29.821s4.89,34.626,1.04,43.763
					c-3.85,9.136-14.377,13.422-23.514,9.572C1399.796,579.633,1395.51,569.105,1399.36,559.968z"/>
			</g>
			<g>
				<path style="fill:#F0F6FF;" d="M1767.132,546.476c3.851-9.137,32.047-29.821,32.047-29.821s4.89,34.627,1.04,43.763
					c-3.85,9.137-14.378,13.422-23.515,9.572C1767.568,566.141,1763.282,555.613,1767.132,546.476z"/>
			</g>
			<g>
				<path style="fill:#F0F6FF;" d="M1557.668,364.119c3.85-9.137,32.047-29.822,32.047-29.822s4.89,34.627,1.04,43.764
					c-3.85,9.136-14.378,13.422-23.515,9.572C1558.104,383.783,1553.818,373.255,1557.668,364.119z"/>
			</g>
			<g>
				<path style="fill:#F0F6FF;" d="M1581.371,469.447c3.85-9.137,32.046-29.821,32.046-29.821s4.891,34.627,1.04,43.763
					c-3.85,9.137-14.377,13.422-23.514,9.572C1581.807,489.111,1577.521,478.583,1581.371,469.447z"/>
			</g>
		</g>
		<g>
			<g>
				<path style="fill:#F0F6FF;" d="M2161.834,731.937c3.851-9.137,32.047-29.822,32.047-29.822s4.891,34.627,1.04,43.764
					c-3.85,9.136-14.378,13.422-23.515,9.572C2162.271,751.601,2157.984,741.074,2161.834,731.937z"/>
			</g>
			<g>
				<path style="fill:#F0F6FF;" d="M2290.282,522.292c3.851-9.137,32.047-29.821,32.047-29.821s4.89,34.627,1.04,43.763
					c-3.85,9.137-14.378,13.422-23.515,9.572C2290.719,541.956,2286.433,531.429,2290.282,522.292z"/>
			</g>
			<g>
				<path style="fill:#F0F6FF;" d="M2311.72,638.171c3.851-9.137,32.047-29.821,32.047-29.821s4.89,34.626,1.04,43.763
					c-3.85,9.136-14.377,13.422-23.515,9.572C2312.156,657.835,2307.87,647.308,2311.72,638.171z"/>
			</g>
		</g>
		<g>
			<g>
				<path style="fill:#F0F6FF;" d="M1176.811,1013.956c3.85-9.137,32.046-29.822,32.046-29.822s4.89,34.626,1.041,43.763
					c-3.85,9.137-14.378,13.422-23.515,9.572S1172.96,1023.092,1176.811,1013.956z"/>
			</g>
			<g>
				<path style="fill:#F0F6FF;" d="M1183.806,734.873c3.85-9.137,32.046-29.821,32.046-29.821s4.89,34.626,1.04,43.763
					c-3.85,9.136-14.377,13.422-23.514,9.572C1184.242,754.537,1179.956,744.009,1183.806,734.873z"/>
			</g>
			<g>
				<path style="fill:#F0F6FF;" d="M1648.319,737.324c3.85-9.137,32.046-29.821,32.046-29.821s4.891,34.626,1.041,43.763
					c-3.851,9.136-14.378,13.422-23.515,9.572C1648.755,756.989,1644.47,746.461,1648.319,737.324z"/>
			</g>
		</g>
		<g>
			<g>
				<path style="fill:#F0F6FF;" d="M845.832,1258.988c3.85-9.137,32.046-29.822,32.046-29.822s4.89,34.627,1.041,43.764
					c-3.85,9.137-14.378,13.422-23.514,9.572C846.268,1278.652,841.982,1268.125,845.832,1258.988z"/>
			</g>
			<g>
				<path style="fill:#F0F6FF;" d="M809.854,1032.856c3.85-9.137,32.046-29.821,32.046-29.821s4.89,34.626,1.041,43.763
					c-3.85,9.137-14.378,13.423-23.514,9.572C810.29,1052.521,806.005,1041.993,809.854,1032.856z"/>
			</g>
			<g>
				<path style="fill:#F0F6FF;" d="M878.072,1118.225c3.85-9.137,32.046-29.821,32.046-29.821s4.89,34.626,1.04,43.763
					s-14.377,13.423-23.514,9.573C878.508,1137.889,874.222,1127.361,878.072,1118.225z"/>
			</g>
		</g>
		<g>
			<g>
				<path style="fill:#F0F6FF;" d="M809.854,1463.202c3.85-9.137,32.046-29.821,32.046-29.821s4.89,34.627,1.041,43.764
					c-3.85,9.136-14.378,13.422-23.514,9.572C810.29,1482.867,806.005,1472.339,809.854,1463.202z"/>
			</g>
			<g>
				<path style="fill:#F0F6FF;" d="M717.889,1243.458c3.85-9.137,32.047-29.821,32.047-29.821s4.89,34.626,1.04,43.763
					c-3.85,9.137-14.378,13.423-23.514,9.573C718.325,1263.122,714.039,1252.595,717.889,1243.458z"/>
			</g>
			<g>
				<path style="fill:#F0F6FF;" d="M878.072,1327.882c3.85-9.137,32.046-29.821,32.046-29.821s4.89,34.626,1.04,43.763
					s-14.377,13.423-23.514,9.572C878.508,1347.546,874.222,1337.019,878.072,1327.882z"/>
			</g>
		</g>
	</g>
</g>
</svg>
